<?xml version="1.0" encoding="UTF-8" standalone="no"?>
<!DOCTYPE svg PUBLIC "-//W3C//DTD SVG 1.1//EN" "http://www.w3.org/Graphics/SVG/1.1/DTD/svg11.dtd">
<svg version="1.1" xmlns="http://www.w3.org/2000/svg" xmlns:xlink="http://www.w3.org/1999/xlink" preserveAspectRatio="xMidYMid meet" viewBox="0 0 100 100" width="100" height="100"><defs><path d="M5 5L95 5L95 95L5 95L5 5Z" id="b1SMXumM3h"></path><path d="M24.38 80.03L34.38 80.03L34.38 90.03L24.38 90.03L24.38 80.03Z" id="gYgcgHIn"></path><path d="M74.38 24.38L84.38 24.38L84.38 34.38L74.38 34.38L74.38 24.38Z" id="b7kQ5BsqgL"></path><path d="M74.38 69.69L84.38 69.69L84.38 79.69L74.38 79.69L74.38 69.69Z" id="kcEYz5bI"></path><path d="M54.06 59.74L64.06 59.74L64.06 69.74L54.06 69.74L54.06 59.74Z" id="hdiCImRr1"></path><path d="M43.44 80.01L53.44 80.01L53.44 90.01L43.44 90.01L43.44 80.01Z" id="d29Io7z4A5"></path><path d="M10.08 49.38L20.08 49.38L20.08 59.38L10.08 59.38L10.08 49.38Z" id="c1pUcbhzEk"></path><path d="M54.06 14.44L64.06 14.44L64.06 24.44L54.06 24.44L54.06 14.44Z" id="f1eL811e6X"></path><path d="M24.38 24.38L34.38 24.38L34.38 34.38L24.38 34.38L24.38 24.38Z" id="bdiAnVUg3"></path></defs><g><g><g><use xlink:href="#b1SMXumM3h" opacity="1" fill="#8a956d" fill-opacity="1"></use><g><use xlink:href="#b1SMXumM3h" opacity="1" fill-opacity="0" stroke="#414141" stroke-width="10" stroke-opacity="1"></use></g></g><g><use xlink:href="#gYgcgHIn" opacity="1" fill="#6c7352" fill-opacity="1"></use></g><g><use xlink:href="#b7kQ5BsqgL" opacity="1" fill="#6c7352" fill-opacity="1"></use></g><g><use xlink:href="#kcEYz5bI" opacity="1" fill="#6c7352" fill-opacity="1"></use></g><g><use xlink:href="#hdiCImRr1" opacity="1" fill="#6c7352" fill-opacity="1"></use></g><g><use xlink:href="#d29Io7z4A5" opacity="1" fill="#6c7352" fill-opacity="1"></use></g><g><use xlink:href="#c1pUcbhzEk" opacity="1" fill="#6c7352" fill-opacity="1"></use></g><g><use xlink:href="#f1eL811e6X" opacity="1" fill="#6c7352" fill-opacity="1"></use></g><g><use xlink:href="#bdiAnVUg3" opacity="1" fill="#6c7352" fill-opacity="1"></use></g></g></g></svg>